HIERARCHY
ROOT Hips
{
	OFFSET -211.153198 91.653587 -35.738949
	CHANNELS 6 Xposition Yposition Zposition Zrotation Yrotation Xrotation 
	JOINT LeftUpLeg
	{
		OFFSET 0.103455 1.857827 10.548507
		CHANNELS 3 Xrotation Yrotation Zrotation
		JOINT LeftLeg
		{
			OFFSET 43.500000 -0.000031 0.000008
			CHANNELS 3 Xrotation Yrotation Zrotation
			JOINT LeftFoot
			{
				OFFSET 42.372192 0.000011 -0.000014
				CHANNELS 3 Xrotation Yrotation Zrotation
				JOINT LeftToe
				{
					OFFSET 17.299997 -0.000002 0.000013
					CHANNELS 3 Xrotation Yrotation Zrotation
					End Site
					{
						OFFSET 0.000000 0.000000 0.000000
					}
				}
			}
		}
	}
	JOINT RightUpLeg
	{
		OFFSET 0.103457 1.857826 -10.548499
		CHANNELS 3 Xrotation Yrotation Zrotation
		JOINT RightLeg
		{
			OFFSET 43.500046 -0.000019 0.000015
			CHANNELS 3 Xrotation Yrotation Zrotation
			JOINT RightFoot
			{
				OFFSET 42.372261 -0.000004 0.000013
				CHANNELS 3 Xrotation Yrotation Zrotation
				JOINT RightToe
				{
					OFFSET 17.299992 -0.000006 0.000004
					CHANNELS 3 Xrotation Yrotation Zrotation
					End Site
					{
						OFFSET 0.000000 0.000000 0.000000
					}
				}
			}
		}
	}
	JOINT Spine
	{
		OFFSET 6.901968 -2.603730 -0.000002
		CHANNELS 3 Xrotation Yrotation Zrotation
		JOINT Spine1
		{
			OFFSET 12.588100 -0.000001 0.000009
			CHANNELS 3 Xrotation Yrotation Zrotation
			JOINT Spine2
			{
				OFFSET 12.343201 0.000005 -0.000005
				CHANNELS 3 Xrotation Yrotation Zrotation
				JOINT Neck
				{
					OFFSET 25.832893 -0.000008 -0.000006
					CHANNELS 3 Xrotation Yrotation Zrotation
					JOINT Head
					{
						OFFSET 11.766606 0.000005 0.000008
						CHANNELS 3 Xrotation Yrotation Zrotation
						End Site
						{
							OFFSET 0.000000 0.000000 0.000000
						}
					}
				}
				JOINT LeftShoulder
				{
					OFFSET 19.745903 -1.480373 6.000100
					CHANNELS 3 Xrotation Yrotation Zrotation
					JOINT LeftArm
					{
						OFFSET 11.284123 -0.000007 -0.000024
						CHANNELS 3 Xrotation Yrotation Zrotation
						JOINT LeftForeArm
						{
							OFFSET 33.000053 0.000004 0.000036
							CHANNELS 3 Xrotation Yrotation Zrotation
							JOINT LeftHand
							{
								OFFSET 25.200006 0.000021 -0.000003
								CHANNELS 3 Xrotation Yrotation Zrotation
								End Site
								{
									OFFSET 0.000000 0.000000 0.000000
								}
							}
						}
					}
				}
				JOINT RightShoulder
				{
					OFFSET 19.746101 -1.480381 -6.000079
					CHANNELS 3 Xrotation Yrotation Zrotation
					JOINT RightArm
					{
						OFFSET 11.284133 -0.000015 -0.000008
						CHANNELS 3 Xrotation Yrotation Zrotation
						JOINT RightForeArm
						{
							OFFSET 33.000099 0.000016 0.000006
							CHANNELS 3 Xrotation Yrotation Zrotation
							JOINT RightHand
							{
								OFFSET 25.199781 0.000142 0.000425
								CHANNELS 3 Xrotation Yrotation Zrotation
								End Site
								{
									OFFSET 0.000000 0.000000 0.000000
								}
							}
						}
					}
				}
			}
		}
	}
}
MOTION
Frames: 15
Frame Time: 0.033333
-199.136505 88.786652 225.759003 93.057311 -8.013311 -110.886598 168.220606 -5.238797 172.284528 -32.674737 -4.521497 -1.622242 78.231204 1.673893 1.547103 21.454558 0.003101 0.000017 -174.970745 6.324006 -179.561398 -49.190319 -0.139399 2.202136 80.646571 0.510651 8.494562 21.454553 -0.003099 -0.000000 9.430481 -0.926593 -0.076553 8.851063 -1.844533 -0.223722 8.532785 -1.845998 -0.212578 19.100761 10.399908 0.266054 -5.560560 -5.377980 1.700814 -163.128318 -71.396316 -18.739005 -0.192279 54.504729 29.781554 -39.233566 -16.962527 1.593370 6.186470 0.294275 13.045603 -162.197308 75.823713 19.688003 -9.970925 -64.072249 4.979165 -119.931510 0.705070 -3.653635 -8.342235 4.317656 -41.809521 
-199.687103 88.231483 228.934494 93.250216 -8.026519 -112.179607 165.691729 -5.910801 171.236900 -33.896911 -3.852621 -1.674572 76.866157 1.607239 1.130778 21.454557 0.003105 0.000017 -170.351434 7.479902 179.740622 -46.369027 -0.399869 -1.507675 80.342689 3.045875 7.954907 21.454557 -0.003096 -0.000001 9.385572 -0.740082 0.168017 8.757220 -1.490675 0.279590 8.439006 -1.489092 0.288586 18.025310 10.074906 0.263771 -6.243532 -6.096135 2.017006 -161.526925 -71.051671 -20.391429 2.680231 55.686133 31.413908 -34.955170 -16.204171 1.438896 8.009191 0.399977 14.222355 -162.950938 76.057770 18.916036 -3.627497 -64.960536 -1.411534 -113.827596 1.417579 -3.450365 -6.610608 1.626279 -51.006688 
-200.240799 87.630943 232.366394 93.368502 -7.871898 -113.545099 163.160392 -6.733092 170.704609 -34.455982 -3.532064 -1.985330 75.070302 1.721220 0.696181 21.454557 0.003122 0.000015 -166.605826 8.685500 177.590888 -42.796367 0.805669 -4.822543 78.054548 5.334023 7.110889 21.454545 -0.003087 -0.000003 9.380554 -0.528619 0.316033 8.745878 -1.079519 0.591258 8.427730 -1.076068 0.597765 17.167102 9.833027 0.479436 -7.657666 -6.777239 2.583546 -161.302512 -70.841213 -20.625167 6.852378 56.588035 33.999828 -31.786539 -15.441162 1.320180 9.247251 0.100188 14.182503 -163.998702 76.587082 17.840954 -2.477322 -65.478100 -3.437543 -105.357396 2.572235 -3.165760 -3.164188 0.066540 -59.388051 
-200.773605 86.956627 236.297699 93.468680 -7.409493 -115.160691 160.425885 -7.952899 169.860343 -34.384094 -3.121741 -2.181908 72.675071 1.725489 0.209079 21.454555 0.003106 0.000019 -164.371193 9.504103 174.715665 -39.103659 2.359452 -6.885838 75.064196 6.693849 6.066786 21.454543 -0.003095 0.000001 9.434802 -0.317894 0.438818 8.854415 -0.668348 0.852048 8.536324 -0.663333 0.856056 16.131606 10.229844 0.714512 -9.038169 -8.188706 3.430053 -162.097478 -71.012077 -19.804316 11.548811 57.189075 37.652941 -29.985664 -14.747178 1.239404 9.677278 0.258232 12.769874 -166.287157 77.088896 15.501970 -6.590981 -65.350260 -0.879749 -94.931843 4.060552 -2.808205 1.461495 -0.132223 -65.729239 
-201.334595 86.389473 240.710602 93.471077 -6.453647 -116.792506 157.784528 -9.452101 169.907526 -32.620157 -3.290431 -2.743485 69.191913 1.962526 -0.360075 21.454558 0.003109 0.000019 -164.163802 9.581102 172.672045 -35.257894 3.136174 -7.023495 76.648984 6.560462 5.724554 21.454548 -0.003087 0.000001 9.505932 -0.095114 0.510268 8.998037 -0.229541 1.011587 8.679979 -0.223565 1.012950 15.134200 10.479960 0.932387 -10.164645 -8.941851 4.073502 -162.410888 -71.080385 -19.480709 15.458511 57.415813 41.722088 -29.444184 -14.488138 1.212374 9.808236 2.096928 11.781941 -169.649113 77.724459 12.072012 -15.559477 -64.232335 1.284122 -82.663088 9.489066 -2.645854 6.187046 1.208176 -70.301150 
-201.907593 86.123337 245.414993 93.809281 -4.947422 -118.530994 155.994158 -11.402688 169.051826 -28.360749 -2.868830 -2.899985 64.374342 1.924204 -0.771541 21.454558 0.003107 0.000017 -165.703517 8.597396 170.752079 -30.579327 4.594336 -6.253619 78.112215 4.231618 -0.227629 21.454553 -0.003091 -0.000002 9.603050 0.215811 0.608794 9.195368 0.382624 1.232791 8.877345 0.389924 1.230457 14.293481 11.024079 1.150274 -11.084704 -9.743100 4.733228 -162.370795 -71.316478 -19.519479 18.579866 57.785258 44.590979 -30.029026 -14.708442 1.237764 9.860297 4.663752 12.641017 -174.347313 77.993718 7.285986 -26.246481 -61.716169 2.506707 -67.978510 15.791899 -2.464043 9.260344 2.844597 -72.525763 
-202.351105 86.004768 250.240997 94.732873 -3.069208 -120.054699 154.960682 -14.029087 168.990833 -22.646660 -2.655311 -3.357830 60.105378 1.589774 -2.323931 21.454560 0.003099 0.000017 -168.951710 6.503908 170.325985 -29.767972 5.538305 -5.352246 83.961289 3.295428 -1.272739 21.454555 -0.003092 -0.000001 9.760104 0.685445 0.702134 9.516360 1.310873 1.458317 9.198278 1.319514 1.450372 13.228293 11.722353 1.309990 -11.666265 -11.048377 5.510985 -162.455380 -71.472889 -19.430606 20.644684 58.358325 45.254672 -31.076661 -15.043160 1.280055 9.454425 6.765149 14.744111 -178.622629 78.050867 2.931033 -36.801391 -57.978095 2.668346 -50.458296 19.357460 -2.056347 10.160507 3.424758 -70.028516 
-202.662201 86.127327 254.975906 95.822582 -1.631230 -121.310211 154.922979 -16.630906 168.349956 -17.051221 -2.514846 -3.457540 61.460317 1.102496 -3.736081 21.454555 0.003110 0.000017 -171.847259 3.929306 169.096441 -29.042381 6.175565 -4.757768 88.051384 2.806063 -1.674913 21.454551 -0.003086 0.000002 10.030799 1.176604 0.739089 10.066504 2.284431 1.578055 9.748275 2.293794 1.564221 11.993368 12.027934 1.489053 -11.509071 -11.978202 6.121079 -162.411995 -71.613823 -19.473810 21.206484 59.264677 45.101645 -31.573164 -15.487270 1.318722 9.111998 7.204736 15.263371 174.911173 77.898212 -3.656997 -44.084244 -54.320286 3.794340 -32.861468 17.339648 -1.438453 8.643566 3.681416 -63.408512 
-202.996307 86.343323 259.380798 96.290156 -0.692876 -122.034594 155.197034 -18.402990 169.020749 -12.227251 -3.330382 -4.629541 67.061044 2.152199 -3.736338 21.454557 0.003111 0.000019 -174.949039 1.731909 167.016567 -29.176348 6.843705 -3.772527 90.473662 2.069984 -2.060109 21.454558 -0.003105 -0.000000 10.219316 1.510131 0.697029 10.448957 2.951120 1.528173 10.130543 2.960157 1.510302 11.695531 12.302304 1.714202 -12.007818 -12.342784 6.582007 -162.681514 -71.740714 -19.195195 20.013704 59.951705 43.831223 -31.034839 -15.381098 1.300900 9.102869 6.692890 15.108810 170.103826 77.874388 -8.552001 -47.120495 -52.788449 7.793492 -21.688999 13.517513 -1.000109 10.802668 1.639560 -58.008612 
-203.315308 86.652168 263.319305 96.083843 -0.515802 -121.624796 154.638652 -18.542405 172.100358 -11.352550 -3.738071 -8.605171 70.196695 4.254355 -6.392312 21.454558 0.003112 0.000018 -177.904093 0.150410 166.844801 -30.343040 6.652448 -3.180615 91.383498 1.623333 -2.432692 21.454551 -0.003098 -0.000000 10.328848 1.653138 0.502319 10.665598 3.252904 1.155472 10.347011 3.259681 1.135771 11.380500 12.771667 1.720485 -12.206909 -12.302226 6.669138 -164.020504 -72.092524 -17.814815 17.454542 60.261796 41.953768 -29.677612 -15.181812 1.261303 8.548740 4.888810 13.704077 171.622027 77.605429 -7.015003 -44.286209 -54.091482 9.184650 -22.240691 13.712054 -1.019828 19.734525 -2.537694 -61.667866 
-203.579193 87.410454 267.191101 95.254938 -0.698582 -120.237694 153.514608 -17.264807 171.733099 -15.967621 -3.291463 -11.050050 69.625043 5.471256 -7.999048 21.454557 0.003108 0.000017 179.069556 -1.097199 167.601163 -31.558582 5.796267 -2.294811 89.779531 1.031932 -2.350794 21.454553 -0.003089 -0.000001 10.302971 1.679640 0.143418 10.603997 3.339031 0.440468 10.285320 3.341493 0.420266 11.180459 13.310201 1.818362 -12.329172 -12.308867 6.851952 -166.344476 -72.510825 -15.423218 14.995175 60.329948 39.281535 -29.504699 -15.482149 1.277206 9.208464 3.771484 13.902454 179.101494 77.311382 0.598990 -37.899863 -55.986453 4.377798 -27.634057 14.505901 -1.154362 24.783077 -5.373853 -66.332878 
-203.851501 88.082741 270.557404 94.287374 -1.541010 -118.644293 152.343640 -15.689993 167.664342 -26.167493 -1.648490 -8.897186 71.429497 4.765221 -5.398722 21.454560 0.003110 0.000018 176.915205 -1.265398 169.366234 -32.542238 4.969433 -2.016337 87.931958 0.824531 -2.387480 21.454550 -0.003085 0.000002 10.261792 1.567406 -0.312061 10.508109 3.156669 -0.480540 10.189491 3.153576 -0.499615 10.964375 13.996471 1.841512 -12.386189 -13.186020 7.245595 -167.647826 -73.351362 -14.081780 13.168333 60.434566 37.105484 -30.388830 -15.722272 1.309817 9.352562 2.654654 15.384248 -173.549014 76.342527 8.087041 -29.971748 -56.356232 -7.121867 -31.426404 15.277610 -1.275838 22.235047 -6.585503 -63.572327 
-204.085907 88.683960 273.565399 93.655274 -2.540052 -117.310698 152.420289 -14.279408 165.938695 -37.118496 -0.087202 -7.088692 72.990188 3.563845 -5.059313 21.454558 0.003098 0.000017 175.672151 -1.055296 171.346743 -32.634326 4.524658 -2.130483 85.893379 0.799927 -2.779825 21.454551 -0.003092 -0.000001 10.177047 1.495097 -0.637060 10.329749 3.041095 -1.138383 10.011226 3.034014 -1.156746 10.543519 14.259122 1.730036 -12.171345 -14.037020 7.448374 -169.352778 -73.758427 -12.332214 10.737915 59.895548 35.639002 -31.284756 -15.919291 1.340510 8.835130 1.693024 16.344334 -167.362625 75.898763 14.407961 -21.030255 -56.372157 -19.549236 -34.010107 15.473874 -1.343495 15.192132 -5.341470 -56.094421 
-204.229507 89.213188 276.452515 93.429434 -3.350981 -116.393609 154.075120 -13.179910 166.160881 -46.499931 0.272404 -5.935491 73.831285 2.879573 -4.584913 21.454558 0.003106 0.000018 175.003189 -1.144513 173.249114 -31.778763 4.083380 -2.437428 83.859642 0.859695 -3.338442 21.454558 -0.003095 -0.000000 10.026182 1.518721 -0.803046 10.023209 3.101268 -1.471969 9.704725 3.092185 -1.490684 10.117991 14.059722 1.509841 -12.345864 -14.657818 7.480865 -169.859674 -73.945759 -11.812622 6.942408 59.396056 33.881249 -31.764420 -15.817371 1.343878 8.298524 1.036386 15.194418 -163.927901 75.445081 17.922012 -11.551163 -55.451745 -30.229847 -35.494099 14.505946 -1.314539 8.369204 -1.369647 -45.169697 
-204.359299 89.562820 279.290100 93.530964 -4.082634 -115.801500 157.183963 -12.249404 165.773431 -54.151413 0.667109 -5.494451 74.498868 2.443213 -4.990739 21.454551 0.003107 0.000018 174.490119 -1.386999 174.501826 -30.775815 4.159274 -2.617695 81.974264 0.767873 -4.052573 21.454550 -0.003094 0.000000 9.868848 1.592929 -0.876635 9.705747 3.253742 -1.617140 9.387238 3.243784 -1.636779 9.261422 13.800052 1.309449 -12.284110 -15.256563 7.539270 -169.898510 -74.163765 -11.773000 2.705156 59.109598 31.767869 -32.488485 -15.743292 1.354389 8.021959 0.842793 13.770069 -162.593500 75.164456 19.290037 -3.028857 -54.129201 -39.078026 -36.171131 13.806296 -1.284895 4.743802 2.130778 -33.863371 
